<?xml version="1.0" encoding="UTF-8"?>
<svg xmlns="http://www.w3.org/2000/svg" xmlns:xlink="http://www.w3.org/1999/xlink" width="30px" height="30px" viewBox="0 0 30 30" version="1.1">
<g id="surface1">
<path style=" stroke:none;fill-rule:nonzero;fill:rgb(255, 255, 255);fill-opacity:1;" d="M 6.664062 4.089844 C 8.371094 3.480469 10.273438 3.984375 11.453125 5.363281 C 12.632812 6.738281 12.84375 8.699219 11.980469 10.292969 L 25.367188 23.679688 L 23.597656 25.449219 L 10.210938 12.058594 C 8.617188 12.917969 6.660156 12.707031 5.285156 11.53125 C 3.910156 10.351562 3.402344 8.449219 4.007812 6.742188 L 6.804688 9.539062 C 7.277344 10.023438 7.972656 10.21875 8.628906 10.046875 C 9.285156 9.878906 9.796875 9.367188 9.96875 8.710938 C 10.140625 8.054688 9.945312 7.355469 9.457031 6.886719 L 6.660156 4.085938 Z M 19.621094 6.445312 L 23.597656 4.234375 L 25.367188 6 L 23.15625 9.980469 L 20.945312 10.421875 L 18.296875 13.074219 L 16.527344 11.304688 L 19.179688 8.652344 Z M 11.222656 16.609375 L 12.992188 18.375 L 6.363281 25.003906 C 5.894531 25.472656 5.140625 25.496094 4.648438 25.054688 C 4.152344 24.617188 4.085938 23.867188 4.496094 23.347656 L 4.59375 23.238281 Z M 11.222656 16.609375 "/>
</g>
</svg>
